<svg xmlns="http://www.w3.org/2000/svg" viewBox="0 0 120 120" fill="none">
  <!-- Nền tròn -->
  <circle cx="60" cy="60" r="60" fill="#8B3A1A"/>

  <!-- Tai trái -->
  <path d="M28 44 C20 30 26 14 36 18 C42 20 44 34 40 44 Z" fill="#FDF0E6"/>
  <path d="M30 42 C24 32 28 20 35 22 C39 24 40 34 38 42 Z" fill="#C4614A"/>

  <!-- Tai phải -->
  <path d="M92 44 C100 30 94 14 84 18 C78 20 76 34 80 44 Z" fill="#FDF0E6"/>
  <path d="M90 42 C96 32 92 20 85 22 C81 24 80 34 82 42 Z" fill="#C4614A"/>

  <!-- Mặt -->
  <ellipse cx="60" cy="68" rx="34" ry="31" fill="#FDF0E6"/>

  <!-- Mắt -->
  <circle cx="47" cy="60" r="4.5" fill="#2C1206"/>
  <circle cx="73" cy="60" r="4.5" fill="#2C1206"/>
  <circle cx="48.2" cy="58.8" r="1.5" fill="white"/>
  <circle cx="74.2" cy="58.8" r="1.5" fill="white"/>

  <!-- Mõm -->
  <ellipse cx="60" cy="78" rx="16" ry="11" fill="#D4735A"/>
  <ellipse cx="54.5" cy="79" rx="4" ry="4.8" fill="#8B3A1A"/>
  <ellipse cx="65.5" cy="79" rx="4" ry="4.8" fill="#8B3A1A"/>
</svg>
